<?xml version="1.0" encoding="utf-8"?>
<!-- Generator: Adobe Illustrator 26.5.0, SVG Export Plug-In . SVG Version: 6.00 Build 0)  -->
<svg version="1.1" id="Layer_1" xmlns="http://www.w3.org/2000/svg" xmlns:xlink="http://www.w3.org/1999/xlink" x="0px" y="0px"
	 viewBox="0 0 1920 900" style="enable-background:new 0 0 1920 900;" xml:space="preserve">
<style type="text/css">
	.st0{fill:#FFFFFF;}
	.st1{fill:none;stroke:#FFFFFF;stroke-width:5;stroke-miterlimit:10;}
</style>
<g>
	<rect x="0.5" y="0.5" width="1919" height="899"/>
	<path class="st0" d="M1919,1v898H1V1H1919 M1920,0H0v900h1920V0L1920,0z"/>
</g>
<g>
	<path class="st1" d="M431,291.8l-31.7,273.6h-88.8c-8.1-42-15.3-89.8-21.5-143.5c-2.8,23-9.5,70.8-19.8,143.5h-88.3L149,291.8h69.1
		l7.5,95.4l7.3,92.3c2.6-47.8,9.2-110.3,19.7-187.7h73.9c1,8,3.6,38.1,7.8,90.2l7.9,104.1c4-66.2,10.7-131,19.9-194.3H431z"/>
	<path class="st1" d="M445,291.8h118.6v54.7h-47.5v51.9h44.4v52h-44.4v60.2h52.2v54.7H445V291.8z"/>
	<path class="st1" d="M588.8,291.8h71c22.4,0,39.4,1.7,50.9,5.2c11.5,3.5,20.9,10.6,28,21.2c7.1,10.6,10.6,27.8,10.6,51.4
		c0,16-2.5,27.1-7.5,33.4c-5,6.3-14.9,11.1-29.7,14.5c16.4,3.7,27.6,9.9,33.5,18.5c5.9,8.6,8.8,21.8,8.8,39.6v25.4
		c0,18.5-2.1,32.2-6.3,41.1c-4.2,8.9-11,15-20.2,18.3c-9.2,3.3-28.2,4.9-56.8,4.9h-82.3V291.8z M660,338.6v60.8
		c3-0.1,5.4-0.2,7.1-0.2c7,0,11.4-1.7,13.3-5.2c1.9-3.4,2.9-13.3,2.9-29.5c0-8.6-0.8-14.6-2.4-18c-1.6-3.4-3.6-5.6-6.2-6.5
		C672.2,339.3,667.3,338.7,660,338.6z M660,442v76.5c10-0.3,16.4-1.9,19.2-4.7c2.8-2.8,4.1-9.7,4.1-20.8v-25.5
		c0-11.7-1.2-18.8-3.7-21.3C677.1,443.8,670.5,442.4,660,442z"/>
	<path class="st1" d="M840.9,291.8h53.2c34.4,0,57.6,1.6,69.7,4.7c12.1,3.2,21.3,8.3,27.6,15.5c6.3,7.2,10.2,15.2,11.8,24.1
		c1.6,8.8,2.4,26.2,2.4,52.1v95.8c0,24.6-1.2,41-3.5,49.3c-2.3,8.3-6.3,14.8-12.1,19.4c-5.7,4.7-12.8,7.9-21.3,9.8
		c-8.4,1.9-21.2,2.8-38.2,2.8h-89.7V291.8z M912.1,338.6v180c10.2,0,16.6-2.1,18.9-6.2c2.4-4.1,3.5-15.3,3.5-33.5V372.6
		c0-12.4-0.4-20.3-1.2-23.8c-0.8-3.5-2.6-6.1-5.4-7.7C925.1,339.5,919.8,338.6,912.1,338.6z"/>
	<path class="st1" d="M1032.2,291.8h118.6v54.7h-47.5v51.9h44.4v52h-44.4v60.2h52.2v54.7h-123.3V291.8z"/>
	<path class="st1" d="M1326.7,374.6h-66.1v-20.3c0-9.5-0.8-15.5-2.5-18.1c-1.7-2.6-4.5-3.9-8.4-3.9c-4.3,0-7.5,1.7-9.7,5.2
		c-2.2,3.5-3.3,8.8-3.3,15.9c0,9.1,1.2,16,3.7,20.6c2.4,4.6,9.1,10.2,20.1,16.7c31.7,18.8,51.6,34.2,59.8,46.3
		c8.2,12.1,12.3,31.5,12.3,58.3c0,19.5-2.3,33.9-6.8,43.1c-4.6,9.2-13.4,17-26.4,23.2c-13.1,6.3-28.3,9.4-45.6,9.4
		c-19,0-35.3-3.6-48.7-10.8c-13.5-7.2-22.3-16.4-26.4-27.5c-4.2-11.2-6.3-27-6.3-47.5v-17.9h66.1v33.3c0,10.3,0.9,16.8,2.8,19.8
		c1.9,2.9,5.2,4.4,9.9,4.4c4.7,0,8.2-1.9,10.6-5.6c2.3-3.7,3.5-9.2,3.5-16.6c0-16.1-2.2-26.6-6.6-31.6c-4.5-5-15.6-13.2-33.3-24.8
		c-17.7-11.7-29.4-20.2-35.1-25.5c-5.7-5.3-10.5-12.6-14.3-22c-3.8-9.3-5.7-21.3-5.7-35.8c0-21,2.7-36.3,8-46
		c5.3-9.7,14-17.3,25.9-22.7c11.9-5.5,26.4-8.2,43.3-8.2c18.5,0,34.2,3,47.2,9c13,6,21.6,13.5,25.9,22.6c4.2,9.1,6.3,24.5,6.3,46.2
		V374.6z"/>
	<path class="st1" d="M1426.1,291.8v273.6h-71.1V291.8H1426.1z"/>
	<path class="st1" d="M1617.8,392.5h-71.1v-24.8c0-15.7-0.7-25.5-2-29.4c-1.4-3.9-4.6-5.9-9.6-5.9c-4.4,0-7.4,1.7-9,5.1
		c-1.6,3.4-2.4,12.1-2.4,26v131.3c0,12.3,0.8,20.4,2.4,24.2c1.6,3.9,4.7,5.8,9.5,5.8c5.2,0,8.7-2.2,10.6-6.6
		c1.9-4.4,2.8-13,2.8-25.7v-32.4h-14.4v-41.6h83.3v146.8h-44.7l-6.6-19.6c-4.8,8.4-11,14.8-18.3,19c-7.4,4.2-16.1,6.3-26.1,6.3
		c-12,0-23.1-2.9-33.6-8.7c-10.4-5.8-18.3-13-23.8-21.5c-5.4-8.6-8.8-17.5-10.1-27c-1.4-9.4-2-23.5-2-42.3v-81.3
		c0-26.1,1.4-45.1,4.2-56.9c2.8-11.8,10.9-22.7,24.2-32.5c13.3-9.9,30.6-14.8,51.8-14.8c20.8,0,38.1,4.3,51.9,12.8
		c13.7,8.6,22.7,18.7,26.9,30.5c4.2,11.8,6.3,28.9,6.3,51.3V392.5z"/>
	<path class="st1" d="M1804.2,291.8v273.6h-62.3l-37-124.4v124.4h-59.5V291.8h59.5l39.9,123.2V291.8H1804.2z"/>
</g>
</svg>
